<svg width="40" height="40" viewBox="0 0 40 40" fill="none" xmlns="http://www.w3.org/2000/svg">
<g clip-path="url(#clip0_32_35)">
<mask id="mask0_32_35" style="mask-type:luminance" maskUnits="userSpaceOnUse" x="0" y="0" width="40" height="40">
<path d="M40 0H0V40H40V0Z" fill="white"/>
</mask>
<g mask="url(#mask0_32_35)">
<path d="M35 0H5C2.23858 0 0 2.23858 0 5V35C0 37.7614 2.23858 40 5 40H35C37.7614 40 40 37.7614 40 35V5C40 2.23858 37.7614 0 35 0Z" fill="#A8DADC"/>
<path d="M34.2364 12.5308C34.703 12.5272 35.0832 12.1448 35.0272 11.6816C34.9432 10.9868 34.7621 10.3057 34.4882 9.65867C34.1043 8.75166 33.5455 7.92915 32.8437 7.23811C32.1419 6.54707 31.3108 6.00102 30.398 5.63114C29.4852 5.26127 28.5085 5.0748 27.5236 5.08241C26.5387 5.09001 25.565 5.29152 24.6579 5.67544C23.7509 6.05937 22.9284 6.61818 22.2374 7.31997C21.5463 8.02176 21.0003 8.8528 20.6304 9.76562C20.3665 10.4169 20.196 11.1006 20.1227 11.7967C20.0738 12.2607 20.4599 12.6371 20.9265 12.6335C21.3931 12.6299 21.7621 12.2469 21.8261 11.7847C21.8918 11.3107 22.0159 10.8456 22.1964 10.4002C22.483 9.69299 22.906 9.04919 23.4414 8.5055C23.9767 7.96181 24.6139 7.5289 25.3166 7.23147C26.0193 6.93404 26.7736 6.77793 27.5366 6.77204C28.2996 6.76615 29.0563 6.9106 29.7635 7.19715C30.4707 7.4837 31.1145 7.90672 31.6581 8.44208C32.2018 8.97744 32.6347 9.61464 32.9322 10.3173C33.1195 10.7599 33.2508 11.2231 33.3238 11.696C33.395 12.1571 33.7698 12.5344 34.2364 12.5308Z" fill="#0C0101"/>
<path d="M19.2371 12.671C19.7037 12.6674 20.0839 12.285 20.0279 11.8218C19.9438 11.127 19.7628 10.4459 19.4889 9.79886C19.105 8.89186 18.5461 8.06936 17.8443 7.37832C17.1426 6.68727 16.3115 6.14122 15.3987 5.77134C14.4859 5.40146 13.5091 5.215 12.5243 5.2226C11.5394 5.23021 10.5656 5.43172 9.65862 5.81564C8.75161 6.19956 7.92911 6.75837 7.23806 7.46017C6.54702 8.16196 6.00097 8.99299 5.63109 9.90582C5.36721 10.5571 5.19669 11.2408 5.12338 11.9369C5.07451 12.4009 5.4606 12.7773 5.92717 12.7737C6.39375 12.7701 6.76277 12.3871 6.82681 11.9249C6.89248 11.4509 7.0166 10.9858 7.1971 10.5404C7.48365 9.83319 7.90668 9.18939 8.44203 8.64571C8.97739 8.10202 9.61459 7.6691 10.3173 7.37167C11.0199 7.07424 11.7743 6.91813 12.5373 6.91224C13.3003 6.90635 14.057 7.0508 14.7642 7.33735C15.4713 7.62389 16.1151 8.04693 16.6588 8.58229C17.2025 9.11765 17.6354 9.75485 17.9328 10.4575C18.1202 10.9001 18.2515 11.3633 18.3245 11.8362C18.3956 12.2973 18.7705 12.6746 19.2371 12.671Z" fill="#0C0101"/>
<path fill-rule="evenodd" clip-rule="evenodd" d="M30.2574 30.0702C31.1778 30.0616 31.917 29.3084 31.9084 28.388L31.7837 15.0553C31.7751 14.1348 31.0219 13.3956 30.1015 13.4042C29.1811 13.4129 28.4419 14.166 28.4505 15.0864C28.4699 17.1579 25.7342 17.9182 24.6819 16.1338L22.5959 12.5964C22.1283 11.8035 21.1065 11.5398 20.3136 12.0073C20.2299 12.0567 20.1279 12.0664 20.0363 12.034C19.2997 11.7735 18.4582 12.0613 18.0464 12.7595L15.9277 16.3521C14.782 18.2949 11.8057 17.4976 11.7846 15.2423C11.776 14.3218 11.0229 13.5826 10.1024 13.5912C9.182 13.5998 8.44282 14.353 8.45143 15.2734L8.57611 28.6062C8.58471 29.5266 9.33785 30.2658 10.2583 30.2572C10.4401 30.2555 10.6149 30.2247 10.7782 30.1693C11.4555 29.9398 12.0881 29.4249 12.4513 28.809L16.0623 22.686C17.9967 19.4058 22.7417 19.4059 24.676 22.6861L28.1905 28.6459C28.481 29.1385 28.9244 29.5733 29.422 29.855C29.6684 29.9945 29.9538 30.073 30.2574 30.0702Z" fill="#0F0404"/>
<path d="M27.8261 11.3044C28.3064 11.3044 28.6957 10.915 28.6957 10.4348C28.6957 9.95455 28.3064 9.56523 27.8261 9.56523C27.3459 9.56523 26.9565 9.95455 26.9565 10.4348C26.9565 10.915 27.3459 11.3044 27.8261 11.3044Z" fill="#0E0202"/>
<path d="M12.1739 11.3044C12.6541 11.3044 13.0435 10.915 13.0435 10.4348C13.0435 9.95455 12.6541 9.56523 12.1739 9.56523C11.6936 9.56523 11.3043 9.95455 11.3043 10.4348C11.3043 10.915 11.6936 11.3044 12.1739 11.3044Z" fill="#0E0202"/>
<path d="M16.5615 28.4453H17.0181L18.1826 31.3433L19.3447 28.4453H19.8037L18.3584 32H18.002L16.5615 28.4453ZM16.4126 28.4453H16.8154L16.8813 30.6133V32H16.4126V28.4453ZM19.5474 28.4453H19.9502V32H19.4814V30.6133L19.5474 28.4453ZM22.0449 30.3374H21.144L21.1392 29.959H21.957C22.0921 29.959 22.2101 29.9362 22.311 29.8906C22.4119 29.8451 22.4901 29.7799 22.5454 29.6953C22.6024 29.609 22.6309 29.5065 22.6309 29.3877C22.6309 29.2575 22.6056 29.1517 22.5552 29.0703C22.5063 28.9873 22.4307 28.9271 22.3281 28.8896C22.2272 28.8506 22.0986 28.8311 21.9424 28.8311H21.249V32H20.7778V28.4453H21.9424C22.1247 28.4453 22.2874 28.464 22.4307 28.5015C22.5739 28.5373 22.6951 28.5942 22.7944 28.6724C22.8953 28.7489 22.9718 28.8465 23.0239 28.9653C23.076 29.0841 23.1021 29.2266 23.1021 29.3926C23.1021 29.5391 23.0646 29.6717 22.9897 29.7905C22.9149 29.9077 22.8107 30.0037 22.6772 30.0786C22.5454 30.1535 22.3908 30.2015 22.2134 30.2227L22.0449 30.3374ZM22.0229 32H20.9585L21.2246 31.6167H22.0229C22.1727 31.6167 22.2996 31.5907 22.4038 31.5386C22.5096 31.4865 22.5902 31.4132 22.6455 31.3188C22.7008 31.2228 22.7285 31.1097 22.7285 30.9795C22.7285 30.8477 22.7049 30.7337 22.6577 30.6377C22.6105 30.5417 22.5365 30.4676 22.4355 30.4155C22.3346 30.3634 22.2044 30.3374 22.0449 30.3374H21.3735L21.3784 29.959H22.2964L22.3965 30.0957C22.5674 30.1104 22.7122 30.1592 22.8311 30.2422C22.9499 30.3236 23.0402 30.4277 23.1021 30.5547C23.1655 30.6816 23.1973 30.8216 23.1973 30.9746C23.1973 31.196 23.1484 31.3831 23.0508 31.5361C22.9548 31.6875 22.8188 31.8031 22.6431 31.8828C22.4673 31.9609 22.2606 32 22.0229 32ZM24.3984 28.4453V32H23.9272V28.4453H24.3984Z" fill="black"/>
</g>
</g>
<defs>
<clipPath id="clip0_32_35">
<rect width="40" height="40" fill="white"/>
</clipPath>
</defs>
</svg>
